<?xml version="1.0" encoding="UTF-8"?>
<svg version="1.1" xmlns="http://www.w3.org/2000/svg" width="762" height="542">
<path d="M0 0 C251.46 0 502.92 0 762 0 C762 178.86 762 357.72 762 542 C510.54 542 259.08 542 0 542 C0 363.14 0 184.28 0 0 Z " fill="#FEFEFE" transform="translate(0,0)"/>
<path d="M0 0 C0.33 0 0.66 0 1 0 C2.02870408 8.22880592 2.19737579 16.41533684 2.28125 24.69921875 C2.29908674 26.12737574 2.3173722 27.55552718 2.33607483 28.9836731 C2.37490908 31.99752588 2.41137165 35.01139312 2.4458313 38.02529907 C2.53528549 45.81648164 2.64073853 53.60745648 2.74609375 61.3984375 C2.75633009 62.16454409 2.76656643 62.93065067 2.77711296 63.71997261 C2.95228178 76.75318643 3.20465587 89.78288661 3.5625 102.8125 C3.58473633 103.62391449 3.60697266 104.43532898 3.62988281 105.27133179 C3.74740943 109.51440439 3.87037167 113.75727712 4 118 C4.95986816 117.24509277 5.91973633 116.49018555 6.90869141 115.71240234 C8.18130694 114.71190368 9.45393109 113.71141598 10.7265625 112.7109375 C11.35763916 112.21456787 11.98871582 111.71819824 12.63891602 111.20678711 C19.5652043 105.76244439 26.439579 100.5442956 34 96 C35.12379987 99.3713996 35.46890514 102.46626223 35.875 106 C36.60745834 112.21980994 37.53248159 118.38551651 38.5625 124.5625 C39.47916624 130.11733126 40.17289034 135.55509432 40.4375 141.1875 C40.8382763 148.91079324 42.15896324 156.40863928 43.48583984 164.02075195 C44.63218486 170.64008751 45.56463597 177.23401717 46.28100586 183.91186523 C46.83730885 188.95758816 47.62657058 193.93757316 48.5 198.9375 C49.52633327 204.82282068 50.34037581 210.68108185 50.9375 216.625 C51.66351102 223.80789194 52.76980332 230.88691102 54 238 C55.35088942 245.81586019 56.48569041 253.59139867 57.28125 261.48217773 C57.83776331 266.87706171 58.62178551 272.21106625 59.5 277.5625 C60.58938632 284.20122158 61.48907386 290.82996372 62.23046875 297.51586914 C62.85490618 303.03279945 63.65320328 308.513135 64.5 314 C65.69540183 321.75141035 66.70080174 329.5065181 67.5703125 337.30078125 C67.86362061 339.82589741 68.23315459 342.34302496 68.66796875 344.84765625 C68.77753906 345.88792969 68.88710938 346.92820312 69 348 C64.62353258 353.13103077 56.73980024 355.83890683 50.6171875 358.43359375 C47.00287987 359.99875288 43.50972795 361.71379917 40 363.5 C35.3873827 365.84749273 30.76963708 368.00091952 26 370 C19.58650681 372.72123917 13.37698217 375.79246724 7.15991211 378.9296875 C1.81373868 381.61807755 -3.59322254 384.1480236 -9.0390625 386.62890625 C-11.80527481 387.90983042 -14.53036582 389.2484467 -17.25 390.625 C-22.54200992 393.30092747 -27.94452319 395.67979398 -33.38671875 398.03125 C-38.02112338 400.05269208 -38.02112338 400.05269208 -42.4375 402.5 C-44.76709479 403.86366525 -46.92530212 404.78753458 -49.4375 405.75 C-54.41281215 407.68071815 -59.14107898 410.0141418 -63.8918457 412.43041992 C-67.78451799 414.40619377 -71.70295931 416.23979473 -75.71484375 417.95703125 C-79.60239812 419.73135094 -83.34753489 421.79572168 -87.10546875 423.828125 C-90.33874564 425.13714398 -92.54330723 425.3413424 -96 425 C-98.04872887 423.74282547 -100.04148656 422.39355764 -102 421 C-107.67144311 417.87873704 -113.52150032 415.31826717 -119.546875 412.96875 C-124.35574385 411.06970625 -129.14224475 409.13277759 -133.5625 406.4375 C-136.12444565 404.92660898 -138.72185051 404.00741818 -141.51171875 403.00390625 C-148.27873409 400.27372895 -154.72559648 396.67693966 -161.21875 393.3515625 C-166.59556829 390.62158002 -171.95560387 388.16387462 -177.578125 385.98828125 C-181.84458607 384.24728988 -185.90448897 382.10522576 -190 380 C-197.87379836 375.95405176 -197.87379836 375.95405176 -205.9375 372.3125 C-209 371 -209 371 -211.4375 369.5 C-214.05622945 367.9670852 -216.68872688 367.01911213 -219.53515625 365.99609375 C-223.17886548 364.52359636 -226.63376775 362.70260301 -230.13110352 360.91479492 C-237.94201868 356.96004566 -245.97850685 353.50144542 -254 350 C-254.24856482 340.56466351 -253.65740999 331.50481221 -252.40499878 322.15594482 C-251.92102284 318.53744001 -251.46643346 314.91524926 -251.01171875 311.29296875 C-250.9213887 310.57679382 -250.83105865 309.8606189 -250.73799133 309.1227417 C-249.98279252 303.05162975 -249.41676555 296.97410984 -248.9375 290.875 C-248.3478506 283.4186393 -247.52280074 276.03432961 -246.5 268.625 C-245.41911586 260.77895114 -244.6280635 252.96206352 -244.0625 245.0625 C-243.25619179 233.82150991 -241.91387695 222.67854934 -240.40844727 211.51391602 C-239.54775468 204.99997197 -238.8553829 198.53442409 -238.5 191.9765625 C-238.07992433 184.23525181 -237.13028756 176.61354732 -236.0625 168.9375 C-234.68584228 158.75963144 -233.52731457 148.59752229 -232.71899414 138.35668945 C-232.15935646 131.4197567 -231.36848778 124.52961148 -230.5 117.625 C-229.32521129 108.24485342 -228.46757795 98.87678357 -227.76953125 89.45019531 C-227.11089498 80.80964327 -226.14480126 72.22319914 -225.10766602 63.62084961 C-224.23482335 56.29771621 -223.53383078 48.97552985 -222.9375 41.625 C-222.31697733 33.99542113 -221.5185721 26.5120854 -220 19 C-212.49446136 25.22800015 -205.58609988 31.9520239 -199.3359375 39.4453125 C-198.08496545 40.90112208 -196.73226059 42.26773941 -195.375 43.625 C-193.03930944 45.96069056 -191.06145226 48.42318468 -189 51 C-186.41649107 53.70953375 -184.11856984 55.92095344 -181 58 C-180.68675781 58.63035156 -180.37351562 59.26070312 -180.05078125 59.91015625 C-178.79384168 62.41001749 -177.33559844 63.65905521 -175.1875 65.4375 C-174.47722656 66.04207031 -173.76695312 66.64664063 -173.03515625 67.26953125 C-172.36355469 67.84058594 -171.69195312 68.41164063 -171 69 C-166.26898734 73.31962025 -166.26898734 73.31962025 -164.9375 76.6875 C-163.75055127 79.61530686 -162.80636587 79.71708989 -160 81 C-155.22222222 85.33333333 -155.22222222 85.33333333 -154 89 C-153.34 89 -152.68 89 -152 89 C-150.58984375 90.3984375 -150.58984375 90.3984375 -148.9375 92.375 C-146.15314946 95.65241262 -143.32607399 98.87628578 -140.4375 102.0625 C-137.34741693 105.4831013 -134.325135 108.94697699 -131.3515625 112.46875 C-130.00497415 113.99436455 -128.59181556 115.40304595 -127.125 116.8125 C-125 119 -125 119 -125 121 C-124.34 121 -123.68 121 -123 121 C-121.66796875 122.35546875 -121.66796875 122.35546875 -120.1875 124.1875 C-116.78988108 128.28121646 -113.45178081 132.03214613 -109 135 C-108.773125 134.443125 -108.54625 133.88625 -108.3125 133.3125 C-106.99365198 130.9888154 -105.4738236 129.44894666 -103.55859375 127.61328125 C-99.13203821 123.03140797 -95.1168127 117.86819334 -91.6875 112.5 C-90 110 -90 110 -87 108 C-86.67 107.01 -86.34 106.02 -86 105 C-84.87040049 103.87040049 -83.73630347 102.74500072 -82.58203125 101.640625 C-79.84935544 98.80673897 -77.49823878 95.66201609 -75.06640625 92.5703125 C-72.60300378 89.50619374 -70.00341386 86.58914634 -67.34765625 83.69140625 C-65.78555149 81.92974084 -65.78555149 81.92974084 -65 79 C-63.66666667 78 -62.33333333 77 -61 76 C-60.67 75.01 -60.34 74.02 -60 73 C-58.35570171 71.31126121 -56.68615782 69.64694485 -55 68 C-54.278125 67.071875 -53.55625 66.14375 -52.8125 65.1875 C-52.214375 64.465625 -51.61625 63.74375 -51 63 C-50.34 63 -49.68 63 -49 63 C-48.9175 62.443125 -48.835 61.88625 -48.75 61.3125 C-47.47326567 57.37590249 -44.73884691 54.717737 -41.8125 51.875 C-39.77113594 50.0333941 -39.77113594 50.0333941 -39 47 C-37.35570171 45.31126121 -35.68615782 43.64694485 -34 42 C-33.278125 41.071875 -32.55625 40.14375 -31.8125 39.1875 C-31.214375 38.465625 -30.61625 37.74375 -30 37 C-29.34 37 -28.68 37 -28 37 C-27.88841553 36.40630615 -27.77683105 35.8126123 -27.66186523 35.20092773 C-26.93520157 32.78452311 -26.09288395 31.64114364 -24.41015625 29.78515625 C-23.61121948 28.8880896 -23.61121948 28.8880896 -22.79614258 27.97290039 C-22.22404053 27.34246826 -21.65193848 26.71203613 -21.0625 26.0625 C-16.12021545 20.51517743 -11.44989202 14.86614446 -7.07250977 8.86157227 C-6.09221153 7.5406637 -5.0515871 6.26489077 -4 5 C-3.34 5 -2.68 5 -2 5 C-1.855625 4.360625 -1.71125 3.72125 -1.5625 3.0625 C-1 1 -1 1 0 0 Z " fill="#FD7707" transform="translate(469,116)"/>
<path d="M0 0 C2.79809723 2.79809723 2.50550412 5.60940573 2.74609375 9.375 C2.80173996 10.12305908 2.85738617 10.87111816 2.91471863 11.6418457 C3.034156 13.25363273 3.14969818 14.86571211 3.26177979 16.47802734 C3.55706506 20.71602233 3.88096485 24.95177698 4.20703125 29.1875 C4.30404327 30.454729 4.30404327 30.454729 4.40301514 31.74755859 C4.96021513 38.85569803 5.74010368 45.92519118 6.625 53 C7.5804055 60.67670409 8.23247226 68.26873289 8.5 76 C8.41643805 93.38715205 8.41643805 93.38715205 15.375 108.375 C17.17468866 109.82006936 17.17468866 109.82006936 19 111 C19.94875 111.763125 20.8975 112.52625 21.875 113.3125 C22.57625 113.869375 23.2775 114.42625 24 115 C24.33 115.66 24.66 116.32 25 117 C25.86625 117.4021875 25.86625 117.4021875 26.75 117.8125 C30.80698538 119.95368673 33.48569198 123.22853797 36 127 C36.63550781 127.31582031 37.27101563 127.63164062 37.92578125 127.95703125 C40.37534652 129.18873356 41.48718757 130.55056413 43.1875 132.6875 C46.37158602 136.46731824 49.80082706 139.36052943 53.7890625 142.26171875 C56.41271622 144.32448537 58.67318235 146.60844863 61 149 C66.18671709 154.26286791 71.36288661 159.46036125 76.98046875 164.265625 C80.07420868 166.92253124 83.08979788 169.66640297 86.1171875 172.3984375 C87.91539089 174.05722691 87.91539089 174.05722691 90 175 C88.50112097 179.34388509 85.77689343 180.52327806 81.8125 182.5625 C80.15154297 183.43068359 80.15154297 183.43068359 78.45703125 184.31640625 C75.01286373 185.99373529 71.52101033 187.4921146 68 189 C65.65836363 190.14991072 63.32497077 191.31675595 61 192.5 C56.3873827 194.84749273 51.76963708 197.00091952 47 199 C40.58650681 201.72123917 34.37698217 204.79246724 28.15991211 207.9296875 C22.81373868 210.61807755 17.40677746 213.1480236 11.9609375 215.62890625 C9.19472519 216.90983042 6.46963418 218.2484467 3.75 219.625 C-1.54200992 222.30092747 -6.94452319 224.67979398 -12.38671875 227.03125 C-17.02112338 229.05269208 -17.02112338 229.05269208 -21.4375 231.5 C-23.76709479 232.86366525 -25.92530212 233.78753458 -28.4375 234.75 C-33.41281215 236.68071815 -38.14107898 239.0141418 -42.8918457 241.43041992 C-46.78451799 243.40619377 -50.70295931 245.23979473 -54.71484375 246.95703125 C-58.60239812 248.73135094 -62.34753489 250.79572168 -66.10546875 252.828125 C-69.33874564 254.13714398 -71.54330723 254.3413424 -75 254 C-77.04872887 252.74282547 -79.04148656 251.39355764 -81 250 C-86.67144311 246.87873704 -92.52150032 244.31826717 -98.546875 241.96875 C-103.35574385 240.06970625 -108.14224475 238.13277759 -112.5625 235.4375 C-115.12444565 233.92660898 -117.72185051 233.00741818 -120.51171875 232.00390625 C-127.27873409 229.27372895 -133.72559648 225.67693966 -140.21875 222.3515625 C-145.59556829 219.62158002 -150.95560387 217.16387462 -156.578125 214.98828125 C-160.84458607 213.24728988 -164.90448897 211.10522576 -169 209 C-176.87379836 204.95405176 -176.87379836 204.95405176 -184.9375 201.3125 C-188 200 -188 200 -190.4375 198.5 C-193.05622945 196.9670852 -195.68872688 196.01911213 -198.53515625 194.99609375 C-202.17886548 193.52359636 -205.63376775 191.70260301 -209.13110352 189.91479492 C-216.94201868 185.96004566 -224.97850685 182.50144542 -233 179 C-233 177.68 -233 176.36 -233 175 C-232.071875 174.5978125 -232.071875 174.5978125 -231.125 174.1875 C-228.7004767 173.04443152 -228.7004767 173.04443152 -227 170 C-226.01 169.67 -225.02 169.34 -224 169 C-221.53185564 166.71696647 -219.34485169 164.47748695 -217.375 161.75 C-216 160 -216 160 -213 159 C-211.66172696 157.33729713 -210.32810215 155.67083819 -209 154 C-208.34 154 -207.68 154 -207 154 C-206.7421875 153.40703125 -206.484375 152.8140625 -206.21875 152.203125 C-204.90230105 149.82339035 -203.57419218 148.49021208 -201.5 146.75 C-200.58734375 145.96882813 -200.58734375 145.96882813 -199.65625 145.171875 C-198 144 -198 144 -196 144 C-195.731875 143.360625 -195.46375 142.72125 -195.1875 142.0625 C-194 140 -194 140 -191 139 C-190.67 138.01 -190.34 137.02 -190 136 C-188.609375 134.59765625 -188.609375 134.59765625 -186.75 133.0625 C-182.90367267 129.80419034 -179.1898521 126.43251948 -175.5 123 C-171.8758323 119.63574106 -168.2395065 116.2991562 -164.5 113.0625 C-161.53467558 110.4888222 -158.70514675 107.8513709 -156 105 C-155.113125 104.113125 -154.22625 103.22625 -153.3125 102.3125 C-150.75138945 99.13099622 -150.15720313 96.20186077 -149.52734375 92.21875 C-148.97894965 88.8715149 -148.27153814 85.586016 -147.54101562 82.27490234 C-145.80273435 74.36321241 -144.46796755 66.54194669 -143.48828125 58.5 C-143.02380107 55.17060604 -142.37560831 51.96288173 -141.625 48.6875 C-139.11519485 37.58000337 -137.66229178 26.25888379 -136 15 C-131.125 19.625 -131.125 19.625 -130 23 C-129.34 23 -128.68 23 -128 23 C-127.5978125 23.928125 -127.5978125 23.928125 -127.1875 24.875 C-126.04443152 27.2995233 -126.04443152 27.2995233 -123 29 C-121.96986723 30.64821244 -120.96885372 32.31503702 -120 34 C-119.34 34.66 -118.68 35.32 -118 36 C-118 36.99 -118 37.98 -118 39 C-116.515 39.495 -116.515 39.495 -115 40 C-113.28125 41.890625 -113.28125 41.890625 -111.5 44.25 C-110.88640625 45.05953125 -110.2728125 45.8690625 -109.640625 46.703125 C-108 49 -108 49 -106.25 52 C-105.09357688 54.32263073 -105.09357688 54.32263073 -102 55 C-101.278125 54.071875 -100.55625 53.14375 -99.8125 52.1875 C-98.09144587 50.10869867 -96.92348815 48.95487763 -94.5625 47.5625 C-92.11835354 46.07216679 -90.96920713 44.92175653 -89.1875 42.75 C-85.84721733 38.67983551 -82.0319919 35.36799324 -78 32 C-77.3915625 31.48824219 -76.783125 30.97648437 -76.15625 30.44921875 C-74.77585076 29.29345995 -73.38874624 28.14571565 -72 27 C-66.125 30.625 -66.125 30.625 -65 34 C-64.34 34.33 -63.68 34.66 -63 35 C-62.34 35.33 -61.68 35.66 -61 36 C-60.67 36.99 -60.34 37.98 -60 39 C-59.34 39.33 -58.68 39.66 -58 40 C-57.34 40.33 -56.68 40.66 -56 41 C-55.67 41.99 -55.34 42.98 -55 44 C-53.69216586 44.71539645 -52.35407561 45.37654073 -51 46 C-49.71812563 46.95880034 -48.4668707 47.95993957 -47.25 49 C-46.63640625 49.515625 -46.0228125 50.03125 -45.390625 50.5625 C-44 52 -44 52 -44 54 C-42.68 54 -41.36 54 -40 54 C-39.34 52.35 -38.68 50.7 -38 49 C-37.34 49 -36.68 49 -36 49 C-35.7525 48.278125 -35.505 47.55625 -35.25 46.8125 C-33.87730408 43.72393418 -32.27646704 41.48988582 -30 39 C-29.34 39 -28.68 39 -28 39 C-27.8453125 38.0409375 -27.8453125 38.0409375 -27.6875 37.0625 C-27.3471875 36.0415625 -27.3471875 36.0415625 -27 35 C-26.01 34.67 -25.02 34.34 -24 34 C-23.30341637 32.34561387 -22.63903117 30.67745682 -22 29 C-21.01979625 27.9805881 -20.02196992 26.97753644 -19 26 C-18.67 25.01 -18.34 24.02 -18 23 C-16.33333333 21.33333333 -14.66666667 19.66666667 -13 18 C-10.16325907 14.44712104 -7.52146982 10.78220474 -5 7 C-4.34 7 -3.68 7 -3 7 C-2.67 5.35 -2.34 3.7 -2 2 C-1.34 2 -0.68 2 0 2 C0 1.34 0 0.68 0 0 Z " fill="#FDA21C" transform="translate(448,287)"/>
<path d="M0 0 C4.875 4.625 4.875 4.625 6 8 C6.66 8 7.32 8 8 8 C8.4021875 8.928125 8.4021875 8.928125 8.8125 9.875 C9.95556848 12.2995233 9.95556848 12.2995233 13 14 C14.03013277 15.64821244 15.03114628 17.31503702 16 19 C16.99 19.99 16.99 19.99 18 21 C18 21.99 18 22.98 18 24 C19.485 24.495 19.485 24.495 21 25 C22.71875 26.890625 22.71875 26.890625 24.5 29.25 C25.11359375 30.05953125 25.7271875 30.8690625 26.359375 31.703125 C28 34 28 34 29.75 37 C30.90642312 39.32263073 30.90642312 39.32263073 34 40 C34.721875 39.071875 35.44375 38.14375 36.1875 37.1875 C37.90855413 35.10869867 39.07651185 33.95487763 41.4375 32.5625 C44.44143873 30.73083004 46.11621831 28.60101096 48.32421875 25.90234375 C50.7151742 23.18813558 53.41646811 20.91285908 56.171875 18.578125 C58.14845971 16.91764787 58.14845971 16.91764787 60.375 14.5625 C62 13 62 13 64 13 C65.15366987 17.57659693 65.13969545 22.08096167 65.12698364 26.76782227 C65.12854363 27.65061387 65.13010362 28.53340548 65.13171089 29.44294834 C65.13569925 32.40078463 65.13253959 35.35856958 65.12939453 38.31640625 C65.13074953 40.43708323 65.13253002 42.55775998 65.13470459 44.67843628 C65.13926718 50.43862865 65.13749417 56.19880313 65.1343255 61.95899582 C65.13179586 67.98381346 65.13414113 74.00862956 65.13571167 80.03344727 C65.13753159 90.15153275 65.13513169 100.26961094 65.13037109 110.38769531 C65.12492882 122.08984112 65.1266916 133.7919695 65.1321975 145.49411488 C65.13673366 155.53667506 65.1373767 165.57923 65.13475883 175.62179089 C65.13319884 181.62181573 65.13299473 187.62183237 65.13629532 193.62185669 C65.13918131 199.26231834 65.13718487 204.90275749 65.13140106 210.54321671 C65.13007739 212.61486906 65.13046094 214.68652329 65.13266373 216.7581749 C65.13539058 219.58286817 65.13197518 222.40748909 65.12698364 225.23217773 C65.12921436 226.05464776 65.13144509 226.87711779 65.13374341 227.72451115 C65.12041039 231.6066213 64.95112601 235.22689255 64 239 C59.87584225 238.30573224 56.47863937 236.19122828 52.875 234.1875 C47.77418783 231.40613466 42.72087278 228.919323 37.27734375 226.86328125 C32.50927736 225.05583241 27.79519035 223.09462826 23.4375 220.4375 C20.87555435 218.92660898 18.27814949 218.00741818 15.48828125 217.00390625 C8.72126591 214.27372895 2.27440352 210.67693966 -4.21875 207.3515625 C-9.59556829 204.62158002 -14.95560387 202.16387462 -20.578125 199.98828125 C-24.84458607 198.24728988 -28.90448897 196.10522576 -33 194 C-40.87379836 189.95405176 -40.87379836 189.95405176 -48.9375 186.3125 C-52 185 -52 185 -54.4375 183.5 C-57.05622945 181.9670852 -59.68872688 181.01911213 -62.53515625 179.99609375 C-66.17886548 178.52359636 -69.63376775 176.70260301 -73.13110352 174.91479492 C-80.94201868 170.96004566 -88.97850685 167.50144542 -97 164 C-97 162.68 -97 161.36 -97 160 C-96.071875 159.5978125 -96.071875 159.5978125 -95.125 159.1875 C-92.7004767 158.04443152 -92.7004767 158.04443152 -91 155 C-90.01 154.67 -89.02 154.34 -88 154 C-85.53185564 151.71696647 -83.34485169 149.47748695 -81.375 146.75 C-80 145 -80 145 -77 144 C-75.66172696 142.33729713 -74.32810215 140.67083819 -73 139 C-72.34 139 -71.68 139 -71 139 C-70.7421875 138.40703125 -70.484375 137.8140625 -70.21875 137.203125 C-68.90230105 134.82339035 -67.57419218 133.49021208 -65.5 131.75 C-64.58734375 130.96882813 -64.58734375 130.96882813 -63.65625 130.171875 C-62 129 -62 129 -60 129 C-59.731875 128.360625 -59.46375 127.72125 -59.1875 127.0625 C-58 125 -58 125 -55 124 C-54.505 122.515 -54.505 122.515 -54 121 C-52.609375 119.59765625 -52.609375 119.59765625 -50.75 118.0625 C-46.90367267 114.80419034 -43.1898521 111.43251948 -39.5 108 C-35.8758323 104.63574106 -32.2395065 101.2991562 -28.5 98.0625 C-25.53467558 95.4888222 -22.70514675 92.8513709 -20 90 C-19.113125 89.113125 -18.22625 88.22625 -17.3125 87.3125 C-14.75138945 84.13099622 -14.15720313 81.20186077 -13.52734375 77.21875 C-12.97894965 73.8715149 -12.27153814 70.586016 -11.54101562 67.27490234 C-9.80273435 59.36321241 -8.46796755 51.54194669 -7.48828125 43.5 C-7.02380107 40.17060604 -6.37560831 36.96288173 -5.625 33.6875 C-3.11519485 22.58000337 -1.66229178 11.25888379 0 0 Z " fill="#FEBA26" transform="translate(312,302)"/>
<path d="M0 0 C7.50553864 6.22800015 14.41390012 12.9520239 20.6640625 20.4453125 C21.91503455 21.90112208 23.26773941 23.26773941 24.625 24.625 C26.96069056 26.96069056 28.93854774 29.42318468 31 32 C33.58350893 34.70953375 35.88143016 36.92095344 39 39 C39.31324219 39.63035156 39.62648438 40.26070312 39.94921875 40.91015625 C41.20615832 43.41001749 42.66440156 44.65905521 44.8125 46.4375 C45.52277344 47.04207031 46.23304688 47.64664063 46.96484375 48.26953125 C47.63644531 48.84058594 48.30804688 49.41164062 49 50 C53.73101266 54.31962025 53.73101266 54.31962025 55.0625 57.6875 C56.24944873 60.61530686 57.19363413 60.71708989 60 62 C64.77777778 66.33333333 64.77777778 66.33333333 66 70 C66.66 70 67.32 70 68 70 C69.41015625 71.3984375 69.41015625 71.3984375 71.0625 73.375 C73.84685054 76.65241262 76.67392601 79.87628578 79.5625 83.0625 C82.65258307 86.4831013 85.674865 89.94697699 88.6484375 93.46875 C89.99502585 94.99436455 91.40818444 96.40304595 92.875 97.8125 C95 100 95 100 95 102 C95.66 102 96.32 102 97 102 C98.33203125 103.35546875 98.33203125 103.35546875 99.8125 105.1875 C101.72511654 107.50228041 103.61900908 109.61900908 105.75 111.75 C108 114 108 114 110 117 C108.83984375 118.32451172 108.83984375 118.32451172 107.65625 119.67578125 C101.38671221 126.88272582 95.45069748 134.14458304 90 142 C88.515 141.01 88.515 141.01 87 140 C87 139.34 87 138.68 87 138 C86.42475586 137.74927734 85.84951172 137.49855469 85.25683594 137.24023438 C82.69558804 135.83271173 80.95942608 134.21829975 78.890625 132.15625 C77.75947266 131.02896484 77.75947266 131.02896484 76.60546875 129.87890625 C75.82816406 129.09386719 75.05085938 128.30882812 74.25 127.5 C73.45722656 126.71496094 72.66445313 125.92992187 71.84765625 125.12109375 C71.09871094 124.36957031 70.34976563 123.61804688 69.578125 122.84375 C68.89137695 122.15474609 68.20462891 121.46574219 67.49707031 120.75585938 C66 119 66 119 66 117 C64.68 117 63.36 117 62 117 C61.79246094 117.54785156 61.58492188 118.09570312 61.37109375 118.66015625 C59.13226384 124.42116209 56.63331515 130.02274329 53.99658203 135.61206055 C51.21725369 141.50992658 48.50812668 147.43845192 45.8125 153.375 C45.39661621 154.28991211 44.98073242 155.20482422 44.55224609 156.14746094 C41.40642967 163.07857948 38.29969305 170.02604966 35.25 177 C33.35800814 181.26064834 31.36869983 185.47380956 29.375 189.6875 C26.10708314 196.59823814 22.9111222 203.53977939 19.75 210.5 C19.1319751 211.86064575 19.1319751 211.86064575 18.50146484 213.2487793 C16.26368715 218.18558719 14.05468009 223.13226041 11.90332031 228.10742188 C11 230 11 230 9 233 C8.690625 233.94875 8.38125 234.8975 8.0625 235.875 C7.02401001 238.92938233 5.65179042 241.24701597 4 244 C3.73960937 244.81726563 3.47921875 245.63453125 3.2109375 246.4765625 C1.50911131 251.42832773 -0.69147776 256.11963231 -2.875 260.875 C-3.52662109 262.30779297 -3.52662109 262.30779297 -4.19140625 263.76953125 C-6.1315349 268.01683991 -8.0976857 272.24008584 -10.20703125 276.40625 C-11.57140402 279.10136662 -12.76536262 281.78792827 -13.8125 284.625 C-15.72512244 289.53129233 -18.04432549 294.19680866 -20.42626953 298.88598633 C-23.17611283 304.30784717 -25.64501071 309.81422366 -28.0234375 315.40625 C-31.21501129 322.79726298 -31.21501129 322.79726298 -34 326 C-34.25258691 318.4055535 -33.38231655 311.05021869 -32.40499878 303.53314209 C-31.03792381 292.99616029 -29.77330535 282.46934702 -28.9375 271.875 C-28.34759063 264.41865117 -27.5228031 257.03434669 -26.5 249.625 C-25.41911586 241.77895114 -24.6280635 233.96206352 -24.0625 226.0625 C-23.25619179 214.82150991 -21.91387695 203.67854934 -20.40844727 192.51391602 C-19.54775468 185.99997197 -18.8553829 179.53442409 -18.5 172.9765625 C-18.07992433 165.23525181 -17.13028756 157.61354732 -16.0625 149.9375 C-14.68584228 139.75963144 -13.52731457 129.59752229 -12.71899414 119.35668945 C-12.15935646 112.4197567 -11.36848778 105.52961148 -10.5 98.625 C-9.32521129 89.24485342 -8.46757795 79.87678357 -7.76953125 70.45019531 C-7.11089498 61.80964327 -6.14480126 53.22319914 -5.10766602 44.62084961 C-4.23482335 37.29771621 -3.53383078 29.97552985 -2.9375 22.625 C-2.31697733 14.99542113 -1.5185721 7.5120854 0 0 Z " fill="#FEA21C" transform="translate(249,135)"/>
<path d="M0 0 C0.33 0 0.66 0 1 0 C2.01587206 8.19267553 2.21283182 16.34676035 2.31640625 24.59375 C2.33735334 26.01348333 2.35862682 27.43321188 2.38020325 28.85293579 C2.44758766 33.40187799 2.50576954 37.95091414 2.5625 42.5 C2.57712658 43.65518253 2.57712658 43.65518253 2.59204865 44.83370209 C2.680722 51.84228065 2.76715682 58.85088098 2.84503174 65.85958862 C2.93343898 73.78359893 3.04020985 81.70657033 3.18400574 89.62982178 C3.2517575 93.5734813 3.29985215 97.51716344 3.34103394 101.46118164 C3.36356759 103.22840305 3.3946723 104.9955372 3.43460083 106.76245117 C3.48727588 109.15713769 3.50954973 111.55013609 3.5234375 113.9453125 C3.5531665 115.90235107 3.5531665 115.90235107 3.58349609 117.89892578 C3 121 3 121 0.59228516 122.81591797 C-0.690896 123.40203857 -0.690896 123.40203857 -2 124 C-2.66 124.66 -3.32 125.32 -4 126 C-4.99 126 -5.98 126 -7 126 C-7 126.66 -7 127.32 -7 128 C-8.32592773 129.2175293 -8.32592773 129.2175293 -10.18359375 130.57421875 C-10.86019043 131.07405273 -11.53678711 131.57388672 -12.23388672 132.08886719 C-12.9610791 132.61641602 -13.68827148 133.14396484 -14.4375 133.6875 C-15.90810509 134.76877952 -17.37816034 135.85080729 -18.84765625 136.93359375 C-19.56195801 137.45808105 -20.27625977 137.98256836 -21.01220703 138.52294922 C-24.20660812 140.89658304 -27.3075491 143.38449927 -30.3984375 145.890625 C-32 147 -32 147 -34 147 C-34 147.66 -34 148.32 -34 149 C-35.6796875 150.5078125 -35.6796875 150.5078125 -37.875 152.125 C-38.59429687 152.66382813 -39.31359375 153.20265625 -40.0546875 153.7578125 C-42 155 -42 155 -44 155 C-44 155.66 -44 156.32 -44 157 C-44.5775 157.2475 -45.155 157.495 -45.75 157.75 C-48.03750774 158.87926227 -48.03750774 158.87926227 -49.609375 160.65625 C-53.00975068 163.98995165 -56.73489751 166.84147431 -60.5 169.75 C-61.63888672 170.65298828 -61.63888672 170.65298828 -62.80078125 171.57421875 C-63.90486328 172.42693359 -63.90486328 172.42693359 -65.03125 173.296875 C-65.69705078 173.81604492 -66.36285156 174.33521484 -67.04882812 174.87011719 C-69 176 -69 176 -73 176 C-74.45703125 174.6796875 -74.45703125 174.6796875 -75.8125 172.875 C-77.86442649 170.3023585 -79.88508269 168.13991588 -82.4375 166.0625 C-87.08223252 162.2143029 -92.06390072 157.80829784 -94 152 C-94.99 151.67 -95.98 151.34 -97 151 C-101.77272727 146.68181818 -101.77272727 146.68181818 -103 143 C-103.825 142.175 -104.65 141.35 -105.5 140.5 C-108 138 -108 138 -109 135 C-107.92903849 131.78711547 -105.96370837 129.91848013 -103.55859375 127.61328125 C-99.13203821 123.03140797 -95.1168127 117.86819334 -91.6875 112.5 C-90 110 -90 110 -87 108 C-86.505 106.515 -86.505 106.515 -86 105 C-84.87040049 103.87040049 -83.73630347 102.74500072 -82.58203125 101.640625 C-79.84935544 98.80673897 -77.49823878 95.66201609 -75.06640625 92.5703125 C-72.60300378 89.50619374 -70.00341386 86.58914634 -67.34765625 83.69140625 C-65.78555149 81.92974084 -65.78555149 81.92974084 -65 79 C-63.66666667 78 -62.33333333 77 -61 76 C-60.505 74.515 -60.505 74.515 -60 73 C-58.35570171 71.31126121 -56.68615782 69.64694485 -55 68 C-54.278125 67.071875 -53.55625 66.14375 -52.8125 65.1875 C-52.214375 64.465625 -51.61625 63.74375 -51 63 C-50.34 63 -49.68 63 -49 63 C-48.9175 62.443125 -48.835 61.88625 -48.75 61.3125 C-47.47326567 57.37590249 -44.73884691 54.717737 -41.8125 51.875 C-39.77113594 50.0333941 -39.77113594 50.0333941 -39 47 C-37.35570171 45.31126121 -35.68615782 43.64694485 -34 42 C-33.278125 41.071875 -32.55625 40.14375 -31.8125 39.1875 C-31.214375 38.465625 -30.61625 37.74375 -30 37 C-29.34 37 -28.68 37 -28 37 C-27.83262329 36.10945923 -27.83262329 36.10945923 -27.66186523 35.20092773 C-26.93520157 32.78452311 -26.09288395 31.64114364 -24.41015625 29.78515625 C-23.61121948 28.8880896 -23.61121948 28.8880896 -22.79614258 27.97290039 C-22.22404053 27.34246826 -21.65193848 26.71203613 -21.0625 26.0625 C-16.12021545 20.51517743 -11.44989202 14.86614446 -7.07250977 8.86157227 C-6.09221153 7.5406637 -5.0515871 6.26489077 -4 5 C-3.34 5 -2.68 5 -2 5 C-1.855625 4.360625 -1.71125 3.72125 -1.5625 3.0625 C-1 1 -1 1 0 0 Z " fill="#FEBB26" transform="translate(469,116)"/>
<path d="M0 0 C1.70884005 1.62339805 3.37446717 3.29319053 5 5 C5 5.66 5 6.32 5 7 C6.32 7.66 7.64 8.32 9 9 C9 9.99 9 10.98 9 12 C9.66 12 10.32 12 11 12 C12.875 14.23046875 12.875 14.23046875 15 17.1875 C16.051875 18.63189453 16.051875 18.63189453 17.125 20.10546875 C19 23 19 23 20.0625 25.80078125 C20.5265625 26.88939453 20.5265625 26.88939453 21 28 C21.99 28.33 22.98 28.66 24 29 C24.9819055 30.39555931 25.95497951 31.79898139 26.86230469 33.24414062 C28.9079981 36.40135673 31.2904166 39.30368085 33.625 42.25 C34.11484375 42.87390625 34.6046875 43.4978125 35.109375 44.140625 C36.99270777 46.52823813 38.8477129 48.8477129 41 51 C41 51.99 41 52.98 41 54 C41.66 54 42.32 54 43 54 C44.18920898 55.3293457 44.18920898 55.3293457 45.49609375 57.17578125 C45.97240234 57.83900391 46.44871094 58.50222656 46.93945312 59.18554688 C47.43380859 59.88744141 47.92816406 60.58933594 48.4375 61.3125 C49.41295215 62.6853111 50.39074234 64.05646451 51.37109375 65.42578125 C51.80349365 66.03848877 52.23589355 66.65119629 52.68139648 67.2824707 C54.00636583 69.00829173 55.45919228 70.46816427 57 72 C58.04644066 73.63790712 59.0398183 75.31008021 60 77 C60.35578125 77.62003906 60.7115625 78.24007812 61.078125 78.87890625 C62.05617085 80.58359884 63.02852942 82.29155174 64 84 C63.113125 84.721875 62.22625 85.44375 61.3125 86.1875 C57.37339804 89.47008497 53.85296034 93.10736709 50.3125 96.8125 C48 99 48 99 46 99 C46 99.66 46 100.32 46 101 C44.38025441 102.71230248 42.7041054 104.37163262 41 106 C40.278125 106.763125 39.55625 107.52625 38.8125 108.3125 C35.50746835 111.47064135 31.97091229 114.23486315 28.3828125 117.0625 C25.71730239 119.2298656 23.34674123 121.49680935 21 124 C20.34 123.67 19.68 123.34 19 123 C18.45336914 121.29199219 18.45336914 121.29199219 18.03515625 119.046875 C17.876521 118.21051514 17.71788574 117.37415527 17.55444336 116.51245117 C17.3109314 115.14503784 17.3109314 115.14503784 17.0625 113.75 C16.88920166 112.81067627 16.71590332 111.87135254 16.53735352 110.90356445 C15.19498768 103.47382638 14.09587356 96.01928483 13.07666016 88.53930664 C12.3449059 83.21986247 11.47643245 77.95520711 10.4375 72.6875 C9.28837711 66.79898943 8.45418835 60.94831456 7.76928711 54.99438477 C7.21442275 50.32726415 6.41960542 45.73441538 5.5 41.125 C4.07578381 33.92947341 3.22482459 26.7340997 2.47265625 19.44140625 C1.79992936 12.94123621 0.89735675 6.47242421 0 0 Z " fill="#FEBB26" transform="translate(300,46)"/>
<path d="M0 0 C2.79809723 2.79809723 2.50550412 5.60940573 2.74609375 9.375 C2.80173996 10.12305908 2.85738617 10.87111816 2.91471863 11.6418457 C3.034156 13.25363273 3.14969818 14.86571211 3.26177979 16.47802734 C3.55706506 20.71602233 3.88096485 24.95177698 4.20703125 29.1875 C4.27170593 30.03231934 4.33638062 30.87713867 4.40301514 31.74755859 C4.96021839 38.85573955 5.74104028 45.92505035 6.625 53 C7.8820095 63.20077918 8.53680029 73.33259726 8.90283203 83.60009766 C9.06106013 87.50809327 9.30875307 91.40971412 9.5625 95.3125 C9.64628906 96.60800781 9.73007812 97.90351563 9.81640625 99.23828125 C9.90728516 100.60533203 9.90728516 100.60533203 10 102 C8 102 8 102 5.73828125 99.8671875 C4.83464844 98.92101562 3.93101562 97.97484375 3 97 C2.05818884 96.04210353 1.114137 95.08640547 0.16796875 94.1328125 C-0.31655762 93.64312988 -0.80108398 93.15344727 -1.30029297 92.64892578 C-5.81415486 88.10008401 -10.37009093 83.69614605 -15.2421875 79.52734375 C-17.98649356 77.14284671 -20.52279868 74.66299142 -23 72 C-23 71.34 -23 70.68 -23 70 C-23.556875 69.938125 -24.11375 69.87625 -24.6875 69.8125 C-28.01159684 68.64457408 -29.68979978 66.61417393 -32 64 C-32.33 63.278125 -32.66 62.55625 -33 61.8125 C-33.90006374 59.72401584 -33.90006374 59.72401584 -36.5625 59 C-39 58 -39 58 -39.9375 56.1875 C-40.0172568 53.39601183 -39.18198059 51.50301771 -38 49 C-37.34 49 -36.68 49 -36 49 C-35.62875 47.9171875 -35.62875 47.9171875 -35.25 46.8125 C-33.87730408 43.72393418 -32.27646704 41.48988582 -30 39 C-29.34 39 -28.68 39 -28 39 C-27.896875 38.360625 -27.79375 37.72125 -27.6875 37.0625 C-27.460625 36.381875 -27.23375 35.70125 -27 35 C-25.515 34.505 -25.515 34.505 -24 34 C-23.30341637 32.34561387 -22.63903117 30.67745682 -22 29 C-21.01979625 27.9805881 -20.02196992 26.97753644 -19 26 C-18.67 25.01 -18.34 24.02 -18 23 C-16.33333333 21.33333333 -14.66666667 19.66666667 -13 18 C-10.16325907 14.44712104 -7.52146982 10.78220474 -5 7 C-4.34 7 -3.68 7 -3 7 C-2.67 5.35 -2.34 3.7 -2 2 C-1.34 2 -0.68 2 0 2 C0 1.34 0 0.68 0 0 Z " fill="#FEE5C2" transform="translate(448,287)"/>
<path d="M0 0 C4.875 4.625 4.875 4.625 6 8 C6.66 8 7.32 8 8 8 C8.268125 8.61875 8.53625 9.2375 8.8125 9.875 C9.95556848 12.2995233 9.95556848 12.2995233 13 14 C14.03013277 15.64821244 15.03114628 17.31503702 16 19 C16.66 19.66 17.32 20.32 18 21 C18 21.99 18 22.98 18 24 C18.99 24.33 19.98 24.66 21 25 C22.71875 26.890625 22.71875 26.890625 24.5 29.25 C25.11230469 30.05953125 25.72460938 30.8690625 26.35546875 31.703125 C28.04446039 34.06209669 29.51959172 36.50668079 31 39 C31.99 39.495 31.99 39.495 33 40 C31.48363279 43.70295197 29.30546659 45.76245642 26.3125 48.375 C25.41789062 49.16132813 24.52328125 49.94765625 23.6015625 50.7578125 C20.9171614 53.07139543 18.2226607 55.37241645 15.51953125 57.6640625 C14.08435689 58.92583533 12.72625796 60.27374204 11.375 61.625 C9.03930944 63.96069056 6.57681532 65.93854774 4 68 C1.29046625 70.58350893 -0.92095344 72.88143016 -3 76 C-3.598125 76.28875 -4.19625 76.5775 -4.8125 76.875 C-7.76867769 78.39531996 -9.69315296 80.63244646 -12 83 C-12.99 83.495 -12.99 83.495 -14 84 C-13.1170908 76.58356271 -12.14342925 69.29115313 -10.5 62 C-9.4133178 57.17513103 -8.60846586 52.40829126 -8 47.5 C-7.41700421 42.82169773 -6.67871601 38.28192839 -5.625 33.6875 C-3.11519485 22.58000337 -1.66229178 11.25888379 0 0 Z " fill="#FEE5C1" transform="translate(312,302)"/>
</svg>
